<?xml version="1.0" encoding="UTF-8" standalone="no"?>
<svg
   viewBox="0 0 100 100"
   width="32"
   height="32"
   version="1.1"
   id="svg1062"
   sodipodi:docname="icona-favicon.svg"
   inkscape:version="1.1.2 (0a00cf5339, 2022-02-04)"
   xmlns:inkscape="http://www.inkscape.org/namespaces/inkscape"
   xmlns:sodipodi="http://sodipodi.sourceforge.net/DTD/sodipodi-0.dtd"
   xmlns="http://www.w3.org/2000/svg"
   xmlns:svg="http://www.w3.org/2000/svg">
  <defs
     id="defs1066" />
  <sodipodi:namedview
     id="namedview1064"
     pagecolor="#ffffff"
     bordercolor="#666666"
     borderopacity="1.0"
     inkscape:pageshadow="2"
     inkscape:pageopacity="0.0"
     inkscape:pagecheckerboard="0"
     showgrid="false"
     inkscape:zoom="25.40625"
     inkscape:cx="20.408364"
     inkscape:cy="14.97663"
     inkscape:window-width="1920"
     inkscape:window-height="998"
     inkscape:window-x="0"
     inkscape:window-y="0"
     inkscape:window-maximized="1"
     inkscape:current-layer="svg1062" />
  <!-- Esagono esterno -->
  <polygon
     points="50,0 95,25 95,75 50,100 5,75 5,25"
     fill="#ffcc00"
     stroke="#cc9900"
     stroke-width="5"
     id="polygon1058"
     style="fill:#007bff;fill-opacity:1" />
  <!-- Lettera C semplificata -->
  <path
     d="m 73.142291,27.745549 -25,-13.572611 -25,13.572611 v 45.242038 l 25,13.572611 25,-13.572611 v -9.048408 l -15,9.048408 -20,-9.048408 V 36.793957 l 20,-9.048408 15,9.048408 z"
     fill="#3a3a3a"
     stroke="#3a3a3a"
     stroke-width="1.90247"
     id="path1060" />
  <path
     style="fill:#000080;stroke-width:0.0393604"
     d="M 8.3936039,28.664522 0.80688807,24.447194 V 15.999996 7.552799 L 8.403444,3.3324733 16,-0.88785254 23.596556,3.3324733 31.193112,7.552799 V 16 24.447201 l -7.594537,4.219204 c -4.176995,2.320562 -7.599873,4.218358 -7.606396,4.217325 -0.0065,-10e-4 -3.425881,-1.899677 -7.5985751,-4.219208 z M 22.807387,27.330408 29.618696,23.546425 V 16 8.453575 L 22.809348,4.6706814 16,0.88778804 9.1906519,4.6706814 2.3813038,8.453575 v 7.546429 7.546429 l 6.799508,3.781136 c 3.7397292,2.079625 6.8030532,3.782415 6.8073872,3.783979 0.0043,0.0016 3.072967,-1.699949 6.819188,-3.78114 z"
     id="path1272"
     transform="scale(3.125)" />
  <text
     xml:space="preserve"
     style="font-size:33.33333334px;line-height:1.25;font-family:sans-serif;stroke-width:3.125"
     x="54.889496"
     y="51.163364"
     id="text3157"><tspan
       sodipodi:role="line"
       id="tspan3155"
       style="stroke-width:3.125;font-size:33.33333334px" /></text>
  <text
     xml:space="preserve"
     style="font-size:33.3334px;line-height:1.25;font-family:sans-serif;stroke-width:3.125"
     x="56.201725"
     y="48.239468"
     id="text49529"><tspan
       sodipodi:role="line"
       id="tspan49527"
       style="stroke-width:3.125" /></text>
  <path
     style="fill:#3a3a3a;fill-opacity:1;stroke-width:0.0960304"
     d="m 51.461817,50.158004 v -6.08143 h 1.1741 1.174091 v 2.49973 2.499727 h 4.634574 4.634582 v -2.499727 -2.49973 h 1.17409 1.174092 v 6.08143 6.08143 h -1.174092 -1.17409 v -2.910133 -2.91013 h -4.634582 -4.634574 v 2.91013 2.910133 h -1.174091 -1.1741 z"
     id="path97893" />
  <path
     style="fill:#000000;stroke-width:0.0393604"
     d="M 8.3837638,28.636272 0.82656827,24.431871 V 16.000061 7.5682519 L 8.3994301,3.3610017 C 12.564504,1.0470142 15.98476,-0.84624846 16,-0.84624846 c 0.01524,0 3.435496,1.89326266 7.60057,4.20725016 l 7.572862,4.2072502 v 8.4317181 8.431718 l -5.097171,2.83233 c -8.006559,4.448981 -10.002836,5.551981 -10.071437,5.564759 -0.03512,0.0065 -3.464603,-1.880084 -7.6210602,-4.192505 z M 22.846009,27.335793 29.617712,23.576876 29.617476,16 29.61724,8.4231242 22.886862,4.6838868 C 19.185148,2.6273063 16.115625,0.92907537 16.065694,0.91004036 15.988458,0.88059607 14.960718,1.4386118 9.1788536,4.6492776 L 2.3827968,8.4231242 2.3828756,16 2.3829543,23.576876 9.161957,27.3458 c 3.728451,2.072908 6.809006,3.764421 6.845676,3.758917 0.03667,-0.0055 3.113939,-1.701519 6.838376,-3.768924 z"
     id="path990"
     transform="scale(3.125)" />
  <path
     style="fill:#000080;stroke-width:0.0393604"
     d="M 15.075031,32.311073 C 13.421975,31.407544 9.9718317,29.497002 5.3923739,26.94923 L 0.86592866,24.430951 V 15.998959 7.5669676 L 6.8880689,4.2231762 c 7.1727291,-3.98265558 9.0706881,-5.03006427 9.1147381,-5.03006427 0.0411,0 1.962235,1.06096307 9.325606,5.15014727 l 5.805658,3.2241217 v 8.4319361 8.431936 l -1.948339,1.083228 c -7.673116,4.266064 -13.033489,7.230584 -13.146372,7.270518 -0.03247,0.01149 -0.46642,-0.201779 -0.964329,-0.473926 z m 1.800515,-1.654205 c 1.029588,-0.563044 5.81518,-3.211564 9.77144,-5.407869 l 2.95203,-1.638809 V 16.0004 8.3906086 L 26.666667,6.7608707 C 23.208024,4.8386299 17.303856,1.5669734 16.560335,1.1606843 L 16.038259,0.87540129 15.596005,1.1016209 C 15.001082,1.4059334 12.446704,2.8130119 6.9667897,5.8550215 L 2.400984,8.3895911 v 7.6099389 7.609938 l 3.99508,2.220281 c 6.697595,3.722215 9.539726,5.284642 9.613021,5.284642 0.01641,0 0.406314,-0.205885 0.866461,-0.457523 z"
     id="path1205"
     transform="scale(3.125)" />
  <path
     style="fill:#1a1a1a;stroke-width:0.0393604"
     d="m 16.472325,16.03936 v -1.928659 h 0.353428 0.353429 l 0.01065,0.797048 0.01065,0.797048 1.505535,0.01031 1.505535,0.01031 v -0.807356 -0.807356 h 0.354244 0.354243 v 1.928659 1.92866 H 20.565796 20.211552 V 17.042587 16.11715 l -1.505535,0.01031 -1.505535,0.01031 -0.01057,0.91513 -0.01056,0.915129 h -0.353518 -0.353518 z"
     id="path1684"
     transform="scale(3.125)" />
</svg>
